# xmcd CD database file
#
# Track frame offsets:
#	150
#	26612
#	60871
#	89997
#	116655
#	145399
#	171631
#	208843
#	234196
#	256014
#
# Disc length: 3694 seconds
#
# Revision: 0
# Processed by: cddbd v1.5.2PL0 Copyright (c) Steve Scherf et al.
# Submitted via: CDex 1.51
#
DISCID=8d0e6c0a
DTITLE=The Heavy Quartet - Hardware
DYEAR=2009
DGENRE=Jazz
TTITLE0=Bailey Dan y Bws
TTITLE1=Go Stop-Go-Man
TTITLE2=Urban Trad
TTITLE3=Bone Medicine
TTITLE4=Debbie's Blues
TTITLE5=A Fistful of Travellers Czechs
TTITLE6=Arabesk
TTITLE7=Walking Home at Midnight Eating Chips
TTITLE8=One Under the Eight
TTITLE9=Heugh!
EXTD=YEAR: 2009
EXTT0=
EXTT1=
EXTT2=
EXTT3=
EXTT4=
EXTT5=
EXTT6=
EXTT7=
EXTT8=
EXTT9=
PLAYORDER=
